<svg xmlns:svg="http://www.w3.org/2000/svg" xmlns="http://www.w3.org/2000/svg" width="50" height="50"><path d="M30.1 13.3C25.5 8.7 18 8.7 13.3 13.3 8.7 18 8.7 25.5 13.3 30.1 17.4 34.2 23.8 34.6 28.5 31.4 28.6 31.9 28.8 32.3 29.1 32.7 29.1 32.7 35.9 39.4 35.9 39.4 36.8 40.4 38.4 40.4 39.4 39.4 40.4 38.4 40.4 36.8 39.4 35.9 39.4 35.9 32.7 29.1 32.7 29.1 32.3 28.8 31.9 28.6 31.4 28.5 34.6 23.8 34.2 17.5 30.1 13.3 28 28 30.1 13.3 30.1 13.3zM28 28C24.5 31.4 18.9 31.4 15.5 28 12 24.5 12 18.9 15.5 15.5 18.9 12 24.5 12 28 15.5 31.4 18.9 31.4 24.5 28 28 28 28 28 28 28 28z" style="fill-opacity:1;fill:#03192d;"/></svg>
