<svg xmlns:xlink="http://www.w3.org/1999/xlink" xmlns="http://www.w3.org/2000/svg" width="130px" height="50px" viewBox="0 0 130 50" version="1.1">
  <defs>
    <symbol id="b">
      <rect fill="#1DAEEB" x="0" y="0" width="10" height="10" />
      <rect fill="#1B95C9" x="0" y="9" width="10" height="1" />
    </symbol>

    <symbol id="w">
      <rect fill="#FFFFFF" x="0" y="0" width="10" height="10"/>
      <rect fill="#BABBC6" x="0" y="9" width="10" height="1"/>
    </symbol>

    <symbol id="w2">
      <rect fill="#FFFFFF" x="0" y="0" width="20" height="10"/>
      <rect fill="#BABBC6" x="0" y="9" width="20" height="1"/>
    </symbol>

    <symbol id="w3">
      <rect fill="#FFFFFF" x="0" y="0" width="30" height="10"/>
      <rect fill="#BABBC6" x="0" y="9" width="30" height="1"/>
    </symbol>
  </defs>

  <g id="bracket">
    <use xlink:href="#b" />
    <use xlink:href="#b" x="10" y="10" />
    <use xlink:href="#b" x="20" y="20" />
    <use xlink:href="#b" x="10" y="30" />
    <use xlink:href="#b" y="40" />
  </g>

  <g id="s" transform="translate(40, 0)">
    <use xlink:href="#w3" x="10" />
    <use xlink:href="#w" x="0" y="10" />
    <use xlink:href="#w2" x="10" y="20" />
    <use xlink:href="#w" x="30" y="30" />
    <use xlink:href="#w3" y="40" />
  </g>

  <g id="u" transform="translate(90, 0)">
    <rect width="10" height="40" fill="#fff" />
    <rect fill="#BABBC6" x="0" y="39" width="10" height="1"/>
    <polygon fill="#fff" points="30,0 40,0 40,50 10,50 10,40 30,40"/>
    <rect fill="#BABBC6" x="10" y="49" width="30" height="1"/>
  </g>
</svg>
