<?xml version="1.0" encoding="utf-8"?>
<!-- Generator: Adobe Illustrator 20.1.0, SVG Export Plug-In . SVG Version: 6.00 Build 0)  -->
<svg version="1.1" id="Layer_1" xmlns="http://www.w3.org/2000/svg" xmlns:xlink="http://www.w3.org/1999/xlink" x="0px" y="0px"
	 viewBox="0 0 290 41" enable-background="new 0 0 290 41" xml:space="preserve">
<g>
	<g>
		<path fill="#00AEEF" d="M114.171,29.574c1.349,0.863,3.319,1.582,5.394,1.582c3.077,0,4.875-1.69,4.875-4.135
			c0-2.265-1.245-3.56-4.391-4.818c-3.803-1.402-6.155-3.452-6.155-6.868c0-3.775,3.008-6.58,7.538-6.58
			c2.386,0,4.115,0.575,5.152,1.187l-0.83,2.553c-0.761-0.431-2.317-1.151-4.426-1.151c-3.181,0-4.391,1.978-4.391,3.632
			c0,2.265,1.418,3.38,4.633,4.674c3.942,1.582,5.947,3.56,5.947,7.119c0,3.739-2.662,6.975-8.16,6.975
			c-2.248,0-4.703-0.683-5.947-1.546L114.171,29.574z"/>
		<path fill="#00AEEF" d="M134.64,9.151v14.346c0,5.429,2.317,7.731,5.428,7.731c3.458,0,5.671-2.373,5.671-7.731V9.151h3.043
			v14.131c0,7.443-3.769,10.499-8.817,10.499c-4.772,0-8.367-2.841-8.367-10.355V9.151H134.64z"/>
		<path fill="#00AEEF" d="M154.002,9.439c1.452-0.252,3.354-0.467,5.774-0.467c2.974,0,5.152,0.719,6.535,2.013
			c1.279,1.151,2.04,2.912,2.04,5.07c0,2.193-0.622,3.919-1.798,5.178c-1.59,1.762-4.184,2.661-7.123,2.661
			c-0.899,0-1.729-0.036-2.42-0.216v9.708h-3.008V9.439z M157.011,21.124c0.657,0.18,1.487,0.252,2.489,0.252
			c3.631,0,5.843-1.834,5.843-5.178c0-3.2-2.178-4.746-5.498-4.746c-1.314,0-2.316,0.108-2.835,0.252V21.124z"/>
		<path fill="#00AEEF" d="M184.465,22.023h-9.059v8.737h10.096v2.625h-13.105V9.151h12.586v2.625h-9.578v7.659h9.059V22.023z"/>
		<path fill="#00AEEF" d="M189.409,9.475c1.521-0.324,3.7-0.503,5.774-0.503c3.216,0,5.29,0.611,6.743,1.978
			c1.176,1.079,1.833,2.733,1.833,4.602c0,3.2-1.936,5.321-4.391,6.184v0.108c1.798,0.647,2.87,2.373,3.423,4.89
			c0.761,3.38,1.314,5.717,1.798,6.652h-3.112c-0.38-0.683-0.899-2.769-1.556-5.789c-0.692-3.344-1.936-4.602-4.668-4.71h-2.835
			v10.499h-3.008V9.475z M192.417,20.513h3.077c3.216,0,5.256-1.834,5.256-4.602c0-3.128-2.178-4.495-5.36-4.53
			c-1.452,0-2.489,0.144-2.973,0.288V20.513z"/>
		<path fill="#00AEEF" d="M211.019,9.151v14.346c0,5.429,2.317,7.731,5.428,7.731c3.458,0,5.671-2.373,5.671-7.731V9.151h3.043
			v14.131c0,7.443-3.769,10.499-8.817,10.499c-4.772,0-8.367-2.841-8.367-10.355V9.151H211.019z"/>
		<path fill="#00AEEF" d="M229.967,29.574c1.349,0.863,3.319,1.582,5.394,1.582c3.077,0,4.875-1.69,4.875-4.135
			c0-2.265-1.245-3.56-4.391-4.818c-3.803-1.402-6.155-3.452-6.155-6.868c0-3.775,3.008-6.58,7.538-6.58
			c2.386,0,4.115,0.575,5.152,1.187l-0.83,2.553c-0.761-0.431-2.317-1.151-4.426-1.151c-3.181,0-4.391,1.978-4.391,3.632
			c0,2.265,1.417,3.38,4.633,4.674c3.942,1.582,5.947,3.56,5.947,7.119c0,3.739-2.662,6.975-8.16,6.975
			c-2.248,0-4.703-0.683-5.947-1.546L229.967,29.574z"/>
		<path fill="#00AEEF" d="M259.495,22.023h-9.059v8.737h10.096v2.625h-13.105V9.151h12.586v2.625h-9.578v7.659h9.059V22.023z"/>
		<path fill="#00AEEF" d="M264.439,9.475c1.522-0.324,3.7-0.503,5.774-0.503c3.216,0,5.29,0.611,6.743,1.978
			c1.176,1.079,1.833,2.733,1.833,4.602c0,3.2-1.936,5.321-4.391,6.184v0.108c1.798,0.647,2.87,2.373,3.423,4.89
			c0.761,3.38,1.314,5.717,1.798,6.652h-3.112c-0.38-0.683-0.899-2.769-1.556-5.789c-0.692-3.344-1.936-4.602-4.668-4.71h-2.835
			v10.499h-3.008V9.475z M267.447,20.513h3.077c3.216,0,5.256-1.834,5.256-4.602c0-3.128-2.178-4.495-5.36-4.53
			c-1.452,0-2.489,0.144-2.973,0.288V20.513z"/>
	</g>
	<g>
		<path fill="#00AEEF" d="M282.654,30.089h-1.104v-0.414h2.687v0.414h-1.109v3.359h-0.474V30.089z"/>
		<path fill="#00AEEF" d="M287.7,31.791c-0.027-0.526-0.059-1.159-0.054-1.629h-0.016c-0.124,0.442-0.274,0.913-0.458,1.433
			l-0.641,1.831h-0.355l-0.587-1.797c-0.172-0.532-0.318-1.019-0.42-1.467h-0.011c-0.011,0.47-0.038,1.103-0.07,1.668l-0.097,1.618
			h-0.447l0.253-3.773h0.598l0.619,1.825c0.151,0.465,0.275,0.879,0.366,1.271h0.016c0.092-0.381,0.221-0.795,0.382-1.271
			l0.646-1.825h0.598l0.226,3.773h-0.458L287.7,31.791z"/>
	</g>
	<g>
		<g>
			<g>
				<path fill="#00AEEF" d="M1.854,9.719V2.531h6.929v7.188H1.854z M1.854,38.469v-7.188h6.929v7.188H1.854z M8.783,16.906V9.719
					h6.929v7.188H8.783z M8.783,31.281v-7.188h6.929v7.188H8.783z M15.713,24.094v-7.188h6.929v7.188H15.713z"/>
			</g>
			<g>
				<path fill="#FFFFFF" d="M29.571,16.906V9.719H36.5v7.188H29.571z M29.571,38.469v-7.188h20.788v7.188H29.571z M36.5,9.719V2.531
					h20.788v7.188H36.5z M36.5,24.094v-7.188h13.858v7.188H36.5z M50.359,31.281v-7.188h6.929v7.188H50.359z"/>
			</g>
			<g>
				<path fill="#FFFFFF" d="M64.161,2.531h6.929v28.75h-6.929V2.531z M71.09,31.281h13.858v7.188H71.09V31.281z M84.949,2.531h6.929
					v35.938h-6.929V2.531z"/>
			</g>
		</g>
		<g>
			<g opacity="0.2">
				<rect x="1.908" y="37.612" fill="#0C2848" width="7.101" height="0.854"/>
			</g>
			<g opacity="0.2">
				<rect x="8.697" y="30.443" fill="#0C2848" width="7.101" height="0.854"/>
			</g>
			<g opacity="0.2">
				<rect x="15.799" y="23.234" fill="#0C2848" width="7.101" height="0.854"/>
			</g>
			<g opacity="0.2">
				<rect x="8.697" y="16.132" fill="#0C2848" width="7.101" height="0.854"/>
			</g>
			<g opacity="0.2">
				<rect x="1.908" y="9.031" fill="#0C2848" width="7.101" height="0.854"/>
			</g>
			<g opacity="0.2">
				<rect x="29.571" y="16.132" fill="#0C2848" width="7.101" height="0.854"/>
			</g>
			<g opacity="0.2">
				<rect x="50.359" y="30.443" fill="#0C2848" width="7.101" height="0.854"/>
			</g>
			<g opacity="0.2">
				<rect x="64.161" y="30.443" fill="#0C2848" width="7.101" height="0.854"/>
			</g>
			<g opacity="0.2">
				<rect x="29.571" y="37.612" fill="#0C2848" width="20.756" height="0.854"/>
			</g>
			<g opacity="0.2">
				<rect x="36.5" y="23.234" fill="#0C2848" width="13.858" height="0.854"/>
			</g>
			<g opacity="0.2">
				<rect x="36.5" y="9.031" fill="#0C2848" width="20.788" height="0.854"/>
			</g>
			<g opacity="0.2">
				<rect x="71.09" y="37.612" fill="#0C2848" width="20.788" height="0.854"/>
			</g>
		</g>
	</g>
</g>
</svg>
